<?xml version="1.0" encoding="UTF-8"?>
<!--Generator: Apple Native CoreSVG 360-->
<!DOCTYPE svg
PUBLIC "-//W3C//DTD SVG 1.1//EN"
       "http://www.w3.org/Graphics/SVG/1.1/DTD/svg11.dtd">
<svg version="1.1" xmlns="http://www.w3.org/2000/svg" xmlns:xlink="http://www.w3.org/1999/xlink" viewBox="0 0 19.8242 17.998">
 <g>
  <rect height="17.998" opacity="0" width="19.8242" x="0" y="0"/>
  <path d="M3.06641 17.998L16.4062 17.998C18.4473 17.998 19.4629 16.9824 19.4629 14.9707L19.4629 3.04688C19.4629 1.03516 18.4473 0.0195312 16.4062 0.0195312L3.06641 0.0195312C1.02539 0.0195312 0 1.02539 0 3.04688L0 14.9707C0 16.9922 1.02539 17.998 3.06641 17.998ZM2.91992 16.4258C2.05078 16.4258 1.57227 15.9668 1.57227 15.0586L1.57227 5.84961C1.57227 4.95117 2.05078 4.48242 2.91992 4.48242L16.5332 4.48242C17.4023 4.48242 17.8906 4.95117 17.8906 5.84961L17.8906 15.0586C17.8906 15.9668 17.4023 16.4258 16.5332 16.4258Z" fill="#ff375f"/>
  <path d="M7.4707 14.4824L9.74609 12.8223L12.0117 14.4824C12.4609 14.8145 12.9688 14.5117 12.7734 13.9258L11.8945 11.2598L14.209 9.58984C14.6875 9.24805 14.4727 8.70117 13.9453 8.70117L11.0645 8.70117L10.2148 6.05469C10.0488 5.53711 9.44336 5.53711 9.27734 6.05469L8.41797 8.70117L5.53711 8.70117C5 8.70117 4.79492 9.24805 5.26367 9.58984L7.60742 11.2598L6.70898 13.9258C6.51367 14.5117 7.03125 14.8145 7.4707 14.4824Z" fill="#ff375f"/>
 </g>
</svg>
