<?xml version="1.0" encoding="UTF-8"?>
<!--Generator: Apple Native CoreSVG 360-->
<!DOCTYPE svg
PUBLIC "-//W3C//DTD SVG 1.1//EN"
       "http://www.w3.org/Graphics/SVG/1.1/DTD/svg11.dtd">
<svg version="1.1" xmlns="http://www.w3.org/2000/svg" xmlns:xlink="http://www.w3.org/1999/xlink" viewBox="0 0 15.0195 14.6973">
 <g>
  <rect height="14.6973" opacity="0" width="15.0195" x="0" y="0"/>
  <path d="M5.36133 1.77734L5.61523 5.625L1.75781 5.38086L1.50391 5.38086C1.03516 5.38086 0.673828 5.71289 0.673828 6.18164C0.673828 6.65039 1.03516 6.98242 1.50391 6.98242L5.55664 6.98242C6.45508 6.98242 6.97266 6.47461 6.97266 5.56641L6.97266 1.52344C6.97266 1.06445 6.63086 0.712891 6.16211 0.712891C5.70312 0.712891 5.36133 1.05469 5.36133 1.52344ZM5.11719 6.14258C5.88867 6.85547 6.82617 5.87891 6.13281 5.12695L3.70117 2.53906L1.43555 0.244141C1.2793 0.0878906 1.08398 0.00976562 0.869141 0.00976562C0.371094 0.00976562 0 0.341797 0 0.839844C0 1.07422 0.0878906 1.28906 0.244141 1.44531L2.51953 3.7207ZM9.29688 12.9297L9.04297 9.08203L12.9102 9.32617L13.1543 9.32617C13.623 9.32617 13.9844 8.99414 13.9844 8.52539C13.9844 8.05664 13.6328 7.71484 13.1543 7.71484L9.10156 7.71484C8.20312 7.71484 7.68555 8.23242 7.68555 9.13086L7.68555 13.1836C7.68555 13.6426 8.03711 13.9941 8.50586 13.9941C8.96484 13.9941 9.29688 13.6523 9.29688 13.1836ZM9.55078 8.56445C8.7793 7.85156 7.8418 8.82812 8.53516 9.58008L10.957 12.168L13.2324 14.4629C13.3789 14.6191 13.5742 14.6973 13.7891 14.6973C14.2871 14.6973 14.6582 14.3652 14.6582 13.8672C14.6582 13.6328 14.5801 13.418 14.4141 13.2617L12.1484 10.9863Z" fill="white"/>
 </g>
</svg>
