<?xml version="1.0" encoding="UTF-8"?>
<!--Generator: Apple Native CoreSVG 360-->
<!DOCTYPE svg
PUBLIC "-//W3C//DTD SVG 1.1//EN"
       "http://www.w3.org/Graphics/SVG/1.1/DTD/svg11.dtd">
<svg version="1.1" xmlns="http://www.w3.org/2000/svg" xmlns:xlink="http://www.w3.org/1999/xlink" viewBox="0 0 21.3477 23.2449">
 <g>
  <rect height="23.2449" opacity="0" width="21.3477" x="0" y="0"/>
  <path d="M5.9418 9.57106L5.59573 9.90858C5.34182 10.1625 5.34182 10.4457 5.59573 10.6996L7.94924 13.0433C8.31057 13.3949 8.26174 13.8637 7.87112 14.2836C7.11917 15.0453 3.90627 16.3832 2.35354 17.9262C1.40627 18.8637 1.41604 20.0062 2.37307 20.973C3.34963 21.9398 4.48245 21.9398 5.41995 20.9926C6.97268 19.4496 8.31057 16.2367 9.07229 15.4848C9.48245 15.0844 9.9512 15.0453 10.3125 15.4066L12.6465 17.7504C12.9004 18.0238 13.1934 18.0141 13.4473 17.7406L13.7772 17.4065L14.9001 18.5294L14.3164 19.1176C13.5742 19.8598 12.6563 19.8598 11.8946 19.0883L9.81448 16.9984C8.89651 18.0922 7.65627 20.8754 6.47463 22.057C4.87307 23.6586 2.96877 23.6391 1.33792 22.0082C-0.292944 20.3871-0.30271 18.473 1.29885 16.8715C2.48049 15.6898 5.2637 14.4594 6.34768 13.5414L4.25784 11.4613C3.48635 10.6898 3.49612 9.78163 4.23831 9.03944L4.82198 8.45124ZM5.06838 19.4984C5.06838 20.1625 4.53127 20.7094 3.86721 20.7094C3.20315 20.7094 2.65627 20.1625 2.65627 19.4984C2.65627 18.8344 3.20315 18.2973 3.86721 18.2973C4.53127 18.2973 5.06838 18.8344 5.06838 19.4984ZM12.3633 0.592177L20.0293 8.26796C21.1426 9.38124 21.1621 10.6801 20.0781 11.7641L16.7834 15.0588L15.6899 13.9648L18.8672 10.7875C19.2871 10.3676 19.2871 9.82069 18.8379 9.37147L18.1352 8.6697C17.0593 9.88528 14.3951 11.3349 13.8965 10.8363C13.8086 10.7484 13.7989 10.5922 13.9258 10.4652C14.9727 9.41833 15.8407 8.22828 16.0741 6.6113L11.5235 2.06679C11.1914 1.74452 10.7813 1.87147 10.6543 2.36952C10.0046 4.78551 9.74422 6.0525 9.07597 7.34709L7.91763 6.1881C8.39421 5.17781 8.61988 4.07577 9.19924 1.55897C9.56057-0.0328235 11.3379-0.433214 12.3633 0.592177Z" fill="white"/>
  <path d="M18.9258 20.9437C19.2188 21.2367 19.7071 21.2367 19.9903 20.9437C20.2832 20.6508 20.2832 20.1723 19.9903 19.8793L2.58792 2.46718C2.29495 2.18397 1.81643 2.17421 1.5137 2.46718C1.23049 2.76015 1.23049 3.24843 1.5137 3.53163Z" fill="white"/>
 </g>
</svg>
