<?xml version="1.0" encoding="UTF-8"?>
<!--Generator: Apple Native CoreSVG 360-->
<!DOCTYPE svg
PUBLIC "-//W3C//DTD SVG 1.1//EN"
       "http://www.w3.org/Graphics/SVG/1.1/DTD/svg11.dtd">
<svg version="1.1" xmlns="http://www.w3.org/2000/svg" xmlns:xlink="http://www.w3.org/1999/xlink" viewBox="0 0 16.7871 27.0605">
 <g>
  <rect height="27.0605" opacity="0" width="16.7871" x="0" y="0"/>
  <path d="M16.4258 6.92383L16.4258 21.7285C16.4258 23.7793 15.4199 24.7949 13.3984 24.7949L3.02734 24.7949C1.00586 24.7949 0 23.7793 0 21.7285L0 6.92383C0 4.87305 1.00586 3.85742 3.02734 3.85742L3.15663 3.85742C3.1484 3.93681 3.14453 4.01835 3.14453 4.10156L3.14453 5.12695C3.14453 5.23091 3.15067 5.33228 3.16478 5.42969L3.10547 5.42969C2.08984 5.42969 1.57227 5.97656 1.57227 6.94336L1.57227 21.709C1.57227 22.6855 2.08984 23.2227 3.10547 23.2227L13.3203 23.2227C14.3359 23.2227 14.8535 22.6855 14.8535 21.709L14.8535 6.94336C14.8535 5.97656 14.3359 5.42969 13.3203 5.42969L13.261 5.42969C13.2751 5.33228 13.2812 5.23091 13.2812 5.12695L13.2812 4.10156C13.2812 4.01835 13.2774 3.93681 13.2692 3.85742L13.3984 3.85742C15.4199 3.85742 16.4258 4.87305 16.4258 6.92383Z" fill="white"/>
  <path d="M5.19531 6.09375L11.2305 6.09375C11.7969 6.09375 12.1387 5.73242 12.1387 5.12695L12.1387 4.10156C12.1387 3.49609 11.7969 3.13477 11.2305 3.13477L10.332 3.13477C10.2637 2.03125 9.3457 1.13281 8.21289 1.13281C7.08008 1.13281 6.16211 2.03125 6.09375 3.13477L5.19531 3.13477C4.62891 3.13477 4.28711 3.49609 4.28711 4.10156L4.28711 5.12695C4.28711 5.73242 4.62891 6.09375 5.19531 6.09375ZM8.21289 4.0625C7.74414 4.0625 7.36328 3.67188 7.36328 3.21289C7.36328 2.73438 7.74414 2.35352 8.21289 2.35352C8.68164 2.35352 9.0625 2.73438 9.0625 3.21289C9.0625 3.67188 8.68164 4.0625 8.21289 4.0625Z" fill="white"/>
  <path d="M3.90625 16.5137L12.5195 16.5137C12.8613 16.5137 13.1348 16.2402 13.1348 15.8984C13.1348 15.5664 12.8613 15.3027 12.5195 15.3027L3.90625 15.3027C3.56445 15.3027 3.29102 15.5664 3.29102 15.8984C3.29102 16.2402 3.56445 16.5137 3.90625 16.5137ZM3.90625 20.166L8.82812 20.166C9.16016 20.166 9.43359 19.8926 9.43359 19.5605C9.43359 19.2285 9.16992 18.9551 8.82812 18.9551L3.90625 18.9551C3.56445 18.9551 3.29102 19.2285 3.29102 19.5605C3.29102 19.8926 3.57422 20.166 3.90625 20.166ZM6.17188 13.7793C6.28906 13.7793 6.38672 13.7012 6.41602 13.5742C6.57227 12.5781 6.69922 12.0508 7.04102 11.7188C7.37305 11.377 7.91016 11.25 8.89648 11.084C9.02344 11.0645 9.10156 10.9668 9.10156 10.8496C9.10156 10.7324 9.02344 10.6348 8.89648 10.6152C7.91016 10.4492 7.37305 10.3223 7.04102 9.98047C6.69922 9.64844 6.57227 9.12109 6.41602 8.125C6.38672 7.99805 6.28906 7.91992 6.17188 7.91992C6.05469 7.91992 5.95703 7.99805 5.9375 8.125C5.77148 9.12109 5.64453 9.64844 5.30273 9.98047C4.9707 10.3223 4.44336 10.4492 3.44727 10.6152C3.33008 10.6348 3.24219 10.7324 3.24219 10.8496C3.24219 10.9668 3.33008 11.0645 3.44727 11.084C4.44336 11.25 4.9707 11.377 5.30273 11.7188C5.64453 12.0508 5.77148 12.5781 5.9375 13.5742C5.95703 13.7012 6.05469 13.7793 6.17188 13.7793Z" fill="white"/>
 </g>
</svg>
